<?xml version="1.0" encoding="UTF-8" standalone="no"?>
<!-- Created with Inkscape (http://www.inkscape.org/) -->

<svg
   xmlns:dc="http://purl.org/dc/elements/1.1/"
   xmlns:cc="http://creativecommons.org/ns#"
   xmlns:rdf="http://www.w3.org/1999/02/22-rdf-syntax-ns#"
   xmlns:svg="http://www.w3.org/2000/svg"
   xmlns="http://www.w3.org/2000/svg"
   xmlns:sodipodi="http://sodipodi.sourceforge.net/DTD/sodipodi-0.dtd"
   xmlns:inkscape="http://www.inkscape.org/namespaces/inkscape"
   width="500"
   height="500"
   viewBox="0 0 132.29166 132.29167"
   version="1.1"
   id="svg5286"
   inkscape:version="0.92.3 (2405546, 2018-03-11)"
   sodipodi:docname="g map 1.svg">
  <defs
     id="defs5280" />
  <sodipodi:namedview
     id="base"
     pagecolor="#ffffff"
     bordercolor="#666666"
     borderopacity="1.0"
     inkscape:pageopacity="0.0"
     inkscape:pageshadow="2"
     inkscape:zoom="0.7"
     inkscape:cx="364.26152"
     inkscape:cy="166.32638"
     inkscape:document-units="mm"
     inkscape:current-layer="layer1"
     showgrid="false"
     units="px"
     inkscape:window-width="1366"
     inkscape:window-height="705"
     inkscape:window-x="-8"
     inkscape:window-y="-8"
     inkscape:window-maximized="1" />
  <metadata
     id="metadata5283">
    <rdf:RDF>
      <cc:Work
         rdf:about="">
        <dc:format>image/svg+xml</dc:format>
        <dc:type
           rdf:resource="http://purl.org/dc/dcmitype/StillImage" />
        <dc:title></dc:title>
      </cc:Work>
    </rdf:RDF>
  </metadata>
  <g
     inkscape:label="Layer 1"
     inkscape:groupmode="layer"
     id="layer1"
     style="display:inline"
     transform="translate(0,-164.70829)">
    <g
       id="g7263"
       transform="matrix(0.43198387,0,0,0.54081637,142.02253,326.9994)">
      <path
         style="fill:#00c4ff;fill-opacity:1;stroke:#000000;stroke-width:0.3662934px;stroke-linecap:butt;stroke-linejoin:miter;stroke-opacity:1"
         d="m -68.82642,-156.38952 29.03345,-34.66298 -44.28335,-7.58614 -11.73068,39.68146 z"
         id="path6379"
         inkscape:connector-curvature="0" />
      <path
         style="fill:#009f6a;fill-opacity:1;stroke:#000000;stroke-width:0.3662934px;stroke-linecap:butt;stroke-linejoin:miter;stroke-opacity:1"
         d="m -84.07632,-198.63864 -58.04129,10.92699 8.65307,31.71956 38.01503,-3.05058 z"
         id="path6381"
         inkscape:connector-curvature="0"
         sodipodi:nodetypes="ccccc" />
      <path
         style="fill:#deaa87;fill-opacity:1;stroke:#000000;stroke-width:0.3662934px;stroke-linecap:butt;stroke-linejoin:miter;stroke-opacity:1"
         d="m -142.11761,-187.71164 -47.13592,-6.30865 29.40001,36.5303 26.38896,1.4979 z"
         id="path6383"
         inkscape:connector-curvature="0" />
      <path
         inkscape:connector-curvature="0"
         id="path6399"
         d="m -162.11748,-179.0338 -2.77462,-11.93347 7.37052,1.32292 2.96801,11.77537 z"
         style="fill:#ececec;stroke:#000000;stroke-width:0.26458332px;stroke-linecap:butt;stroke-linejoin:miter;stroke-opacity:1"
         sodipodi:nodetypes="ccccc" />
      <path
         inkscape:connector-curvature="0"
         id="path6401"
         d="m -115.27476,-170.71256 1.06907,12.96257 7.6172,-0.4009 -1.60364,-13.76438 z"
         style="fill:#e6e6e6;stroke:#000000;stroke-width:0.26458332px;stroke-linecap:butt;stroke-linejoin:miter;stroke-opacity:1" />
    </g>
    <g
       id="g7256"
       transform="matrix(0.43198387,0,0,0.54081637,142.02253,326.9994)">
      <path
         inkscape:connector-curvature="0"
         id="path6360"
         d="m -280.28062,-195.12076 -29.03345,34.66298 44.28335,7.58614 11.73068,-39.68146 z"
         style="fill:#00c4ff;fill-opacity:1;stroke:#000000;stroke-width:0.3662934px;stroke-linecap:butt;stroke-linejoin:miter;stroke-opacity:1" />
      <path
         sodipodi:nodetypes="ccccc"
         inkscape:connector-curvature="0"
         id="path6362"
         d="m -265.03072,-152.87164 58.04129,-10.92699 -8.65307,-31.71956 -38.01503,3.05058 z"
         style="fill:#009f5b;fill-opacity:1;stroke:#000000;stroke-width:0.3662934px;stroke-linecap:butt;stroke-linejoin:miter;stroke-opacity:1" />
      <path
         inkscape:connector-curvature="0"
         id="path6364"
         d="m -206.98943,-163.79864 47.13592,6.30865 -29.40001,-36.5303 -26.38896,-1.4979 z"
         style="fill:#00beff;fill-opacity:1;stroke:#000000;stroke-width:0.3662934px;stroke-linecap:butt;stroke-linejoin:miter;stroke-opacity:1" />
      <path
         inkscape:connector-curvature="0"
         id="path6405"
         d="m -245.87349,-156.47694 11.52826,-2.17337 -0.0945,-14.07961 -9.6384,2.26786 z"
         style="fill:#e6e6e6;stroke:#000000;stroke-width:0.26458332px;stroke-linecap:butt;stroke-linejoin:miter;stroke-opacity:1" />
    </g>
    <g
       id="g7250"
       transform="matrix(0.43198387,0,0,0.54081637,147.06914,322.36665)">
      <path
         inkscape:connector-curvature="0"
         id="path5098"
         d="m -224.26584,-175.57869 -6.51364,-9.01773 -4.86163,-7.48559 -6.70244,-12.082 -2.31282,-5.73457 c 0,0 -1.66827,-5.17008 -1.53478,-7.39876 0.13351,-2.22868 0.73238,-4.68325 0.73238,-4.68325 0,0 1.53401,-4.6183 3.35122,-6.7633 1.81721,-2.14499 3.11522,-3.30504 3.11522,-3.30504 0,0 2.47801,-2.16688 4.31883,-2.95484 1.84081,-0.78795 3.46921,-1.35703 3.46921,-1.35703 0,0 3.75243,-0.8974 5.68764,-0.94117 1.93521,-0.0438 3.23322,0.0438 3.23322,0.0438 0,0 4.46043,0.50342 6.56084,1.53214 2.10041,1.02872 3.63442,1.94801 3.63442,1.94801 0,0 2.90282,2.03555 3.91762,3.12993 1.01481,1.09439 2.45442,2.99862 2.45442,2.99862 0,0 1.84081,3.1956 2.19481,4.46509 0.354,1.26948 0.9912,4.46508 0.9912,5.55947 0,1.09438 -0.1888,2.99861 -0.1888,2.99861 0,0 -1.18,4.68397 -1.55761,5.60325 -0.3776,0.91928 -2.73761,6.041 -2.73761,6.041 l -2.38362,4.39943 -2.95001,5.09983 -3.54003,5.75647 -5.00322,7.55125 z"
         style="fill:#ff7a00;fill-opacity:1;stroke:#000000;stroke-width:0.08999746px;stroke-linecap:butt;stroke-linejoin:miter;stroke-opacity:1" />
      <ellipse
         ry="10.957669"
         rx="11.681474"
         cy="-217.89517"
         cx="-224.09648"
         id="path5104"
         style="fill:#ffffff;fill-opacity:1;stroke-width:0.0769951" />
      <flowRoot
         transform="matrix(0.09396043,-0.17608147,0.16029496,0.07301694,57.890819,-348.48935)"
         style="font-style:normal;font-variant:normal;font-weight:normal;font-stretch:normal;font-size:40px;line-height:1.25;font-family:sans-serif;-inkscape-font-specification:sans-serif;letter-spacing:0px;word-spacing:0px;display:inline;fill:#ff0000;fill-opacity:1;stroke:none"
         id="flowRoot5157"
         xml:space="preserve"><flowRegion
           style="font-style:normal;font-variant:normal;font-weight:normal;font-stretch:normal;font-family:sans-serif;-inkscape-font-specification:sans-serif;fill:#ff0000"
           id="flowRegion5159"><rect
             style="font-style:normal;font-variant:normal;font-weight:normal;font-stretch:normal;font-family:sans-serif;-inkscape-font-specification:sans-serif;fill:#ff0000"
             y="-995.02576"
             x="-1309.1577"
             height="888.93427"
             width="1220.2643"
             id="rect5161" /></flowRegion><flowPara
           id="flowPara5163">o</flowPara></flowRoot>      <flowRoot
         transform="matrix(0.0665804,-0.18670006,0.18015928,0.04971158,188.12955,292.98956)"
         style="font-style:normal;font-weight:normal;font-size:40px;line-height:1.25;font-family:sans-serif;letter-spacing:0px;word-spacing:0px;display:inline;fill:#ff0000;fill-opacity:1;stroke:none"
         id="flowRoot5197"
         xml:space="preserve"><flowRegion
           style="fill:#ff0000"
           id="flowRegion5199"><rect
             style="fill:#ff0000"
             y="-2942.5999"
             x="1891.0056"
             height="614.17273"
             width="686.90375"
             id="rect5201" /></flowRegion><flowPara
           id="flowPara5203">e</flowPara></flowRoot>      <flowRoot
         transform="matrix(0.09361711,-0.17543811,0.16851775,0.07676255,60.670076,111.94758)"
         style="font-style:normal;font-variant:normal;font-weight:normal;font-stretch:normal;font-size:40px;line-height:1.25;font-family:sans-serif;-inkscape-font-specification:sans-serif;letter-spacing:0px;word-spacing:0px;display:inline;fill:#ffca1d;fill-opacity:1;stroke:none"
         id="flowRoot5173"
         xml:space="preserve"><flowRegion
           style="font-style:normal;font-variant:normal;font-weight:normal;font-stretch:normal;font-family:sans-serif;-inkscape-font-specification:sans-serif;fill:#ffca1d;fill-opacity:1"
           id="flowRegion5175"><rect
             style="font-style:normal;font-variant:normal;font-weight:normal;font-stretch:normal;font-family:sans-serif;-inkscape-font-specification:sans-serif;fill:#ffca1d;fill-opacity:1"
             y="-2134.4778"
             x="816.20325"
             height="614.17273"
             width="775.79718"
             id="rect5177" /></flowRegion><flowPara
           id="flowPara5179">o</flowPara></flowRoot>      <flowRoot
         transform="matrix(0.12539669,-0.23499292,0.1710415,0.07791217,298.48526,-227.60617)"
         style="font-style:normal;font-weight:normal;font-size:40px;line-height:1.25;font-family:sans-serif;letter-spacing:0px;word-spacing:0px;display:inline;fill:#0048ff;fill-opacity:1;stroke:none"
         id="flowRoot5181"
         xml:space="preserve"><flowRegion
           style="fill:#0048ff;fill-opacity:1"
           id="flowRegion5183"><rect
             style="fill:#0048ff;fill-opacity:1"
             y="-2368.8333"
             x="-905.09668"
             height="614.17273"
             width="703.06616"
             id="rect5185" /></flowRegion><flowPara
           id="flowPara5187">g</flowPara></flowRoot>      <flowRoot
         transform="matrix(0.10510719,-0.19697048,0.16774402,0.07641011,-173.2633,553.16878)"
         style="font-style:normal;font-weight:normal;font-size:40px;line-height:1.25;font-family:sans-serif;letter-spacing:0px;word-spacing:0px;display:inline;fill:#008000;fill-opacity:1;stroke:none"
         id="flowRoot5189"
         xml:space="preserve"><flowRegion
           style="fill:#008000"
           id="flowRegion5191"><rect
             style="fill:#008000"
             y="-2150.6404"
             x="3014.2952"
             height="727.30981"
             width="767.71594"
             id="rect5193" /></flowRegion><flowPara
           id="flowPara5195">l</flowPara></flowRoot>      <flowRoot
         transform="matrix(0.09412822,-0.17639591,0.16792135,0.07649088,391.37698,-539.21537)"
         style="font-style:normal;font-weight:normal;font-size:40px;line-height:1.25;font-family:sans-serif;letter-spacing:0px;word-spacing:0px;fill:#004fff;fill-opacity:1;stroke:none"
         id="flowRoot5949"
         xml:space="preserve"><flowRegion
           style="fill:#004fff;fill-opacity:1"
           id="flowRegion5951"><rect
             style="fill:#004fff;fill-opacity:1"
             y="-2061.4812"
             x="-2901.1582"
             height="686.90375"
             width="816.20325"
             id="rect5953" /></flowRegion><flowPara
           id="flowPara5955">G</flowPara></flowRoot>    </g>
    <path
       style="fill:#e6e6e6;stroke:#000000;stroke-width:0.12788545px;stroke-linecap:butt;stroke-linejoin:miter;stroke-opacity:1"
       d="m 115.94832,237.02298 -13.16814,-4.04722 -19.685268,3.3245 -15.817491,-3.54132 -16.221595,-1.87907 -21.705742,6.07084 -15.990678,-4.19177 2.020484,-2.89087 14.605202,3.61359 20.204818,-6.07084 14.316559,1.22863 17.549332,3.54132 21.878939,-4.55313 14.88475,5.10334 z"
       id="path6397"
       inkscape:connector-curvature="0"
       sodipodi:nodetypes="ccccccccccccccc" />
    <flowRoot
       xml:space="preserve"
       id="flowRoot6011"
       style="font-style:normal;font-weight:normal;font-size:40px;line-height:1.25;font-family:sans-serif;letter-spacing:0px;word-spacing:0px;fill:#000000;fill-opacity:1;stroke:none"
       transform="scale(0.26458333)"><flowRegion
         id="flowRegion6013"><rect
           id="rect6015"
           width="11.428572"
           height="560"
           x="-4022.8572"
           y="-2648.9089" /></flowRegion><flowPara
         id="flowPara6017" /></flowRoot>  </g>
</svg>
